<svg width="3471" height="2149" viewBox="0 0 3471 2149" fill="none" xmlns="http://www.w3.org/2000/svg">
<style>
@keyframes pulseOpacity {
  0%, 100% {
    opacity: 0.4;
  }
  50% {
    opacity: 1;
  }
}

/* Apply the animation to each circle */
#Ellipse\ 3, #Ellipse\ 4, #Ellipse\ 5, #Ellipse\ 6, #Ellipse\ 7, #Ellipse\ 8 {
  animation: pulseOpacity 1.5s infinite ease-in-out;
}

/* Set a delay for each circle so they pulse one after the other */
#Ellipse\ 3 {
  animation-delay: 0s;
}
#Ellipse\ 4 {
  animation-delay: 0.3s;
}
#Ellipse\ 5 {
  animation-delay: 0.6s;
}
#Ellipse\ 6 {
  animation-delay: 0s;
}
#Ellipse\ 7 {
  animation-delay: 0.3s;
}
#Ellipse\ 8 {
  animation-delay: 0.6s;
}
</style>
<g id="249269160-4a5e00fd-c860-40df-a218-6dd0d27ba970 2">
<g clip-path="url(#clip0_905_318)">
<path id="615115_fill_path" d="M0 0H3471V2149H0V0Z" fill="#0D1117"/>
<ellipse id="Ellipse 1" cx="1631.5" cy="1271" rx="2548.5" ry="2035" fill="#D9D9D9"/>
<rect id="Rectangle 2" x="46" y="44" width="3380" height="2060" rx="30" fill="#0D1117"/>
<path id="&#62; LOAN" d="M427 593.6C423.667 588 424.933 583.467 430.8 580L543.6 516.4V522.6L430.8 460.2C425.067 456.733 423.8 452.133 427 446.4C430.333 440.667 434.867 439.4 440.6 442.6L557.6 507.8C562.267 510.467 564.6 514.267 564.6 519.2C564.6 524.933 562.267 529.067 557.6 531.6L440.6 597.4C434.867 600.733 430.333 599.467 427 593.6ZM755.609 650C748.543 650 745.009 646.467 745.009 639.4V402.8C745.009 395.733 748.543 392.2 755.609 392.2C762.543 392.2 766.009 395.733 766.009 402.8V629H887.609C894.676 629 898.209 632.467 898.209 639.4C898.209 646.467 894.676 650 887.609 650H755.609ZM1015.2 650C986.264 650 965.13 643.333 951.797 630C938.464 616.667 931.797 595.533 931.797 566.6V475.4C931.797 446.2 938.464 425 951.797 411.8C965.13 398.467 986.13 391.933 1014.8 392.2H1063.2C1092.13 392.2 1113.2 398.867 1126.4 412.2C1139.73 425.533 1146.4 446.667 1146.4 475.6V566.6C1146.4 595.533 1139.73 616.667 1126.4 630C1113.2 643.333 1092.13 650 1063.2 650H1015.2ZM1015.2 629H1063.2C1078.53 629 1090.73 627 1099.8 623C1108.86 619 1115.4 612.467 1119.4 603.4C1123.4 594.333 1125.4 582.067 1125.4 566.6V475.6C1125.4 460.267 1123.4 448.067 1119.4 439C1115.4 429.933 1108.86 423.4 1099.8 419.4C1090.73 415.267 1078.53 413.2 1063.2 413.2H1014.8C999.464 413.067 987.264 415 978.197 419C969.264 422.867 962.797 429.4 958.797 438.6C954.797 447.667 952.797 459.933 952.797 475.4V566.6C952.797 582.067 954.797 594.333 958.797 603.4C962.797 612.467 969.33 619 978.397 623C987.464 627 999.73 629 1015.2 629ZM1191.61 649C1185.21 646.2 1183.27 641.533 1185.81 635L1285.01 400.4C1287.14 394.933 1291.07 392.2 1296.81 392.2H1298.01C1303.47 392.333 1307.34 395.067 1309.61 400.4L1408.81 635C1411.47 641.533 1409.61 646.2 1403.21 649C1396.67 651.667 1392.14 649.8 1389.61 643.4L1363.01 580.4H1232.01L1205.41 643.4C1202.74 649.8 1198.14 651.667 1191.61 649ZM1240.61 559.4H1354.21L1297.41 425.4L1240.61 559.4ZM1468.11 650C1461.04 650 1457.51 646.467 1457.51 639.4V402.8C1457.51 395.733 1461.04 392.2 1468.11 392.2C1471.84 392.2 1475.44 394.267 1478.91 398.4L1648.31 616H1643.51V402.8C1643.51 395.733 1647.04 392.2 1654.11 392.2C1661.04 392.2 1664.51 395.733 1664.51 402.8V639.4C1664.51 646.467 1661.04 650 1654.11 650C1650.24 650 1646.64 647.933 1643.31 643.8L1473.71 426.2H1478.51V639.4C1478.51 646.467 1475.04 650 1468.11 650Z" fill="white"/>
<path id="_" d="M1718.68 670.8C1711.61 670.8 1708.08 667.333 1708.08 660.4C1708.08 653.333 1711.61 649.8 1718.68 649.8H1819.88C1826.81 649.8 1830.28 653.333 1830.28 660.4C1830.28 667.333 1826.81 670.8 1819.88 670.8H1718.68Z" fill="white"/>
<path id="French Student and Dev" d="M218.04 1074C215.09 1074 213.615 1072.52 213.615 1069.57V970.794C213.615 967.844 215.09 966.368 218.04 966.368H278.244C279.635 966.368 280.693 966.758 281.417 967.537C282.196 968.261 282.586 969.347 282.586 970.794C282.586 973.689 281.138 975.136 278.244 975.136H222.382V1015.13H260.458C263.408 1015.13 264.884 1016.58 264.884 1019.47C264.884 1022.42 263.408 1023.9 260.458 1023.9H222.382V1069.57C222.382 1072.52 220.935 1074 218.04 1074ZM290.939 1074C287.989 1074 286.514 1072.52 286.514 1069.57V999.434C286.514 996.54 287.989 995.092 290.939 995.092C293.834 995.092 295.281 996.54 295.281 999.434V1012.29C298.176 1006.73 302.351 1002.47 307.806 999.518C313.317 996.568 319.83 995.092 327.345 995.092C330.296 995.092 331.771 996.54 331.771 999.434C331.771 1002.38 330.296 1003.86 327.345 1003.86C317.437 1003.86 309.755 1006.11 304.299 1010.62C298.844 1015.08 295.838 1021.45 295.281 1029.74V1069.57C295.281 1072.52 293.834 1074 290.939 1074ZM352.716 1037.93V1044.02C352.716 1051.87 354.275 1057.38 357.392 1060.56C360.565 1063.67 366.132 1065.23 374.092 1065.23H387.786C394.8 1065.23 399.894 1064.34 403.067 1062.56C406.296 1060.72 408.216 1057.58 408.828 1053.12C409.051 1051.73 409.496 1050.68 410.164 1049.95C410.888 1049.23 411.974 1048.87 413.421 1048.87C414.868 1048.87 415.954 1049.28 416.677 1050.12C417.457 1050.9 417.763 1052.01 417.596 1053.46C416.872 1060.47 414.061 1065.65 409.162 1068.99C404.264 1072.33 397.138 1074 387.786 1074H374.092C363.683 1074 356.056 1071.61 351.213 1066.82C346.37 1061.98 343.949 1054.38 343.949 1044.02V1025.15C343.949 1014.63 346.37 1006.98 351.213 1002.19C356.056 997.347 363.683 994.981 374.092 995.092H387.786C398.196 995.092 405.795 997.514 410.582 1002.36C415.425 1007.14 417.846 1014.74 417.846 1025.15V1033.5C417.846 1036.45 416.399 1037.93 413.504 1037.93H352.716ZM374.092 1003.86C366.132 1003.75 360.565 1005.28 357.392 1008.45C354.275 1011.57 352.716 1017.14 352.716 1025.15V1029.16H409.079V1025.15C409.079 1017.19 407.52 1011.65 404.403 1008.54C401.286 1005.42 395.747 1003.86 387.786 1003.86H374.092ZM451.253 1074C448.303 1074 446.827 1072.52 446.827 1069.57V999.434C446.827 996.54 448.303 995.092 451.253 995.092C454.148 995.092 455.595 996.54 455.595 999.434V1007.45C460.883 999.212 470.458 995.092 484.319 995.092H488.995C499.405 995.092 507.003 997.514 511.79 1002.36C516.633 1007.14 519.055 1014.74 519.055 1025.15V1069.57C519.055 1072.52 517.608 1074 514.713 1074C511.763 1074 510.287 1072.52 510.287 1069.57V1025.15C510.287 1017.19 508.701 1011.65 505.528 1008.54C502.411 1005.42 496.9 1003.86 488.995 1003.86H484.319C475.691 1003.86 468.899 1005.22 463.945 1007.95C458.991 1010.68 456.207 1014.94 455.595 1020.73V1069.57C455.595 1072.52 454.148 1074 451.253 1074ZM576.645 1074C566.235 1074 558.609 1071.58 553.766 1066.74C548.923 1061.89 546.502 1054.27 546.502 1043.86V1024.99C546.502 1014.58 548.895 1006.98 553.683 1002.19C558.526 997.347 566.18 994.981 576.645 995.092H590.339C598.522 995.092 604.757 996.484 609.043 999.267C613.385 1002 615.974 1006.31 616.809 1012.21C616.976 1013.71 616.642 1014.85 615.807 1015.63C615.027 1016.41 613.914 1016.8 612.467 1016.8C611.131 1016.8 610.129 1016.47 609.461 1015.8C608.793 1015.08 608.292 1014.05 607.958 1012.71C607.345 1009.48 605.703 1007.2 603.031 1005.86C600.359 1004.53 596.128 1003.86 590.339 1003.86H576.645C568.685 1003.75 563.118 1005.25 559.945 1008.37C556.828 1011.43 555.269 1016.97 555.269 1024.99V1043.86C555.269 1051.82 556.828 1057.38 559.945 1060.56C563.118 1063.67 568.685 1065.23 576.645 1065.23H590.339C596.128 1065.23 600.359 1064.56 603.031 1063.23C605.703 1061.89 607.345 1059.58 607.958 1056.3C608.292 1054.96 608.793 1053.96 609.461 1053.29C610.129 1052.57 611.131 1052.21 612.467 1052.21C613.914 1052.21 615.027 1052.62 615.807 1053.46C616.642 1054.24 616.976 1055.35 616.809 1056.8C615.974 1062.7 613.385 1067.04 609.043 1069.82C604.757 1072.61 598.522 1074 590.339 1074H576.645ZM648.587 1074C645.637 1074 644.161 1072.52 644.161 1069.57V962.527C644.161 959.633 645.637 958.185 648.587 958.185C651.482 958.185 652.929 959.633 652.929 962.527V1007.45C658.217 999.212 667.792 995.092 681.653 995.092H686.329C696.739 995.092 704.337 997.514 709.124 1002.36C713.967 1007.14 716.389 1014.74 716.389 1025.15V1069.57C716.389 1072.52 714.942 1074 712.047 1074C709.097 1074 707.621 1072.52 707.621 1069.57V1025.15C707.621 1017.19 706.035 1011.65 702.862 1008.54C699.745 1005.42 694.234 1003.86 686.329 1003.86H681.653C673.025 1003.86 666.233 1005.22 661.279 1007.95C656.325 1010.68 653.541 1014.94 652.929 1020.73V1069.57C652.929 1072.52 651.482 1074 648.587 1074ZM815.642 1073.83C805.677 1073.83 798.274 1071.63 793.431 1067.24C788.643 1062.78 786.083 1055.8 785.749 1046.28C785.693 1044.94 786.055 1043.88 786.834 1043.1C787.669 1042.27 788.755 1041.85 790.091 1041.85C791.427 1041.85 792.484 1042.24 793.264 1043.02C794.043 1043.8 794.488 1044.86 794.6 1046.19C794.822 1053.21 796.492 1058.11 799.61 1060.89C802.727 1063.67 808.071 1065.07 815.642 1065.07H839.69C847.594 1065.07 853.078 1063.53 856.139 1060.47C859.257 1057.36 860.815 1051.9 860.815 1044.11C860.815 1036.2 859.257 1030.72 856.139 1027.66C853.078 1024.54 847.594 1022.98 839.69 1022.98H816.811C807.013 1022.98 799.832 1020.7 795.268 1016.13C790.703 1011.57 788.421 1004.42 788.421 994.675C788.421 984.933 790.675 977.78 795.184 973.215C799.749 968.651 806.902 966.368 816.644 966.368H840.024C849.376 966.368 856.306 968.456 860.815 972.631C865.38 976.806 867.829 983.375 868.163 992.337C868.275 993.673 867.913 994.758 867.078 995.593C866.298 996.373 865.213 996.762 863.821 996.762C862.541 996.762 861.511 996.373 860.732 995.593C859.952 994.814 859.507 993.756 859.396 992.42C859.173 986.019 857.614 981.538 854.72 978.977C851.825 976.416 846.926 975.136 840.024 975.136H816.644C809.351 975.136 804.286 976.583 801.447 979.478C798.608 982.317 797.188 987.383 797.188 994.675C797.188 1001.97 798.608 1007.06 801.447 1009.96C804.341 1012.79 809.463 1014.21 816.811 1014.21H839.69C850.044 1014.21 857.614 1016.64 862.402 1021.48C867.189 1026.27 869.583 1033.81 869.583 1044.11C869.583 1054.41 867.189 1061.95 862.402 1066.74C857.614 1071.47 850.044 1073.83 839.69 1073.83H815.642ZM930.806 1074C920.564 1074 913.077 1071.63 908.345 1066.9C903.613 1062.17 901.247 1054.71 901.247 1044.52V1003.86H891.311C888.361 1003.86 886.885 1002.38 886.885 999.434C886.885 996.54 888.361 995.092 891.311 995.092H901.247V977.14C901.247 974.19 902.695 972.714 905.589 972.714C908.54 972.714 910.015 974.19 910.015 977.14V995.092H930.973C933.868 995.092 935.315 996.54 935.315 999.434C935.315 1002.38 933.868 1003.86 930.973 1003.86H910.015V1044.52C910.015 1052.32 911.518 1057.72 914.524 1060.72C917.586 1063.73 923.013 1065.23 930.806 1065.23C932.421 1065.23 933.562 1065.59 934.23 1066.32C934.954 1067.04 935.315 1068.13 935.315 1069.57C935.315 1072.52 933.812 1074 930.806 1074ZM1024.73 995.092C1027.68 995.092 1029.15 996.54 1029.15 999.434V1069.57C1029.15 1072.52 1027.68 1074 1024.73 1074C1021.83 1074 1020.38 1072.52 1020.38 1069.57V1061.64C1015.1 1069.88 1005.52 1074 991.661 1074H986.985C976.575 1074 968.949 1071.58 964.106 1066.74C959.319 1061.89 956.925 1054.27 956.925 1043.86V999.434C956.925 996.54 958.372 995.092 961.267 995.092C964.217 995.092 965.692 996.54 965.692 999.434V1043.86C965.692 1051.82 967.251 1057.38 970.368 1060.56C973.541 1063.67 979.08 1065.23 986.985 1065.23H991.661C1000.29 1065.23 1007.08 1063.84 1012.03 1061.06C1016.99 1058.27 1019.77 1054.02 1020.38 1048.28V999.434C1020.38 996.54 1021.83 995.092 1024.73 995.092ZM1088.25 1074C1077.84 1074 1070.21 1071.58 1065.37 1066.74C1060.52 1061.89 1058.1 1054.27 1058.1 1043.86V1025.15C1058.1 1014.74 1060.52 1007.14 1065.37 1002.36C1070.21 997.514 1077.84 995.092 1088.25 995.092H1123.23V962.527C1123.23 959.633 1124.71 958.185 1127.66 958.185C1130.55 958.185 1132 959.633 1132 962.527V1069.57C1132 1072.52 1130.55 1074 1127.66 1074C1124.71 1074 1123.23 1072.52 1123.23 1069.57V1062.39C1120.84 1066.23 1117.33 1069.13 1112.71 1071.08C1108.09 1073.03 1102.05 1074 1094.59 1074H1088.25ZM1088.25 1065.23H1094.59C1103.28 1065.23 1110.21 1063.87 1115.38 1061.14C1120.62 1058.36 1123.23 1054.21 1123.23 1048.7V1003.86H1088.25C1080.29 1003.86 1074.72 1005.45 1071.55 1008.62C1068.43 1011.74 1066.87 1017.25 1066.87 1025.15V1043.86C1066.87 1051.82 1068.43 1057.38 1071.55 1060.56C1074.72 1063.67 1080.29 1065.23 1088.25 1065.23ZM1168.31 1037.93V1044.02C1168.31 1051.87 1169.87 1057.38 1172.99 1060.56C1176.16 1063.67 1181.72 1065.23 1189.69 1065.23H1203.38C1210.39 1065.23 1215.49 1064.34 1218.66 1062.56C1221.89 1060.72 1223.81 1057.58 1224.42 1053.12C1224.64 1051.73 1225.09 1050.68 1225.76 1049.95C1226.48 1049.23 1227.57 1048.87 1229.01 1048.87C1230.46 1048.87 1231.55 1049.28 1232.27 1050.12C1233.05 1050.9 1233.36 1052.01 1233.19 1053.46C1232.46 1060.47 1229.65 1065.65 1224.76 1068.99C1219.86 1072.33 1212.73 1074 1203.38 1074H1189.69C1179.28 1074 1171.65 1071.61 1166.81 1066.82C1161.96 1061.98 1159.54 1054.38 1159.54 1044.02V1025.15C1159.54 1014.63 1161.96 1006.98 1166.81 1002.19C1171.65 997.347 1179.28 994.981 1189.69 995.092H1203.38C1213.79 995.092 1221.39 997.514 1226.17 1002.36C1231.02 1007.14 1233.44 1014.74 1233.44 1025.15V1033.5C1233.44 1036.45 1231.99 1037.93 1229.1 1037.93H1168.31ZM1189.69 1003.86C1181.72 1003.75 1176.16 1005.28 1172.99 1008.45C1169.87 1011.57 1168.31 1017.14 1168.31 1025.15V1029.16H1224.67V1025.15C1224.67 1017.19 1223.11 1011.65 1220 1008.54C1216.88 1005.42 1211.34 1003.86 1203.38 1003.86H1189.69ZM1266.85 1074C1263.9 1074 1262.42 1072.52 1262.42 1069.57V999.434C1262.42 996.54 1263.9 995.092 1266.85 995.092C1269.74 995.092 1271.19 996.54 1271.19 999.434V1007.45C1276.48 999.212 1286.05 995.092 1299.91 995.092H1304.59C1315 995.092 1322.6 997.514 1327.38 1002.36C1332.23 1007.14 1334.65 1014.74 1334.65 1025.15V1069.57C1334.65 1072.52 1333.2 1074 1330.31 1074C1327.36 1074 1325.88 1072.52 1325.88 1069.57V1025.15C1325.88 1017.19 1324.29 1011.65 1321.12 1008.54C1318 1005.42 1312.49 1003.86 1304.59 1003.86H1299.91C1291.28 1003.86 1284.49 1005.22 1279.54 1007.95C1274.58 1010.68 1271.8 1014.94 1271.19 1020.73V1069.57C1271.19 1072.52 1269.74 1074 1266.85 1074ZM1396.58 1074C1386.34 1074 1378.85 1071.63 1374.12 1066.9C1369.39 1062.17 1367.02 1054.71 1367.02 1044.52V1003.86H1357.08C1354.13 1003.86 1352.66 1002.38 1352.66 999.434C1352.66 996.54 1354.13 995.092 1357.08 995.092H1367.02V977.14C1367.02 974.19 1368.47 972.714 1371.36 972.714C1374.31 972.714 1375.79 974.19 1375.79 977.14V995.092H1396.75C1399.64 995.092 1401.09 996.54 1401.09 999.434C1401.09 1002.38 1399.64 1003.86 1396.75 1003.86H1375.79V1044.52C1375.79 1052.32 1377.29 1057.72 1380.3 1060.72C1383.36 1063.73 1388.79 1065.23 1396.58 1065.23C1398.19 1065.23 1399.34 1065.59 1400 1066.32C1400.73 1067.04 1401.09 1068.13 1401.09 1069.57C1401.09 1072.52 1399.59 1074 1396.58 1074ZM1489.58 1074C1480.89 1074 1474.52 1072 1470.46 1067.99C1466.45 1063.92 1464.44 1057.55 1464.44 1048.87C1464.44 1040.18 1466.48 1033.81 1470.54 1029.74C1474.6 1025.68 1480.95 1023.65 1489.58 1023.65H1527.57C1527.46 1016.3 1525.79 1011.18 1522.56 1008.29C1519.39 1005.34 1513.96 1003.86 1506.28 1003.86H1496.59C1489.52 1003.86 1484.35 1004.61 1481.06 1006.11C1477.78 1007.62 1475.74 1010.18 1474.97 1013.8C1474.58 1015.19 1474.05 1016.22 1473.38 1016.89C1472.77 1017.5 1471.76 1017.8 1470.37 1017.8C1468.93 1017.8 1467.78 1017.41 1466.95 1016.64C1466.17 1015.8 1465.89 1014.69 1466.11 1013.3C1466.84 1006.95 1469.71 1002.33 1474.72 999.434C1479.78 996.54 1487.07 995.092 1496.59 995.092H1506.28C1516.69 995.092 1524.29 997.514 1529.07 1002.36C1533.92 1007.14 1536.34 1014.74 1536.34 1025.15V1069.57C1536.34 1072.52 1534.89 1074 1532 1074C1529.05 1074 1527.57 1072.52 1527.57 1069.57V1061.31C1522.23 1069.77 1512.68 1074 1498.93 1074H1489.58ZM1489.58 1065.23H1498.93C1504.33 1065.23 1509.06 1064.65 1513.13 1063.48C1517.24 1062.25 1520.56 1060.31 1523.06 1057.63C1525.57 1054.96 1527.07 1051.4 1527.57 1046.95V1032.42H1489.58C1483.4 1032.42 1479.11 1033.61 1476.72 1036.01C1474.38 1038.35 1473.21 1042.63 1473.21 1048.87C1473.21 1055.05 1474.38 1059.33 1476.72 1061.73C1479.11 1064.06 1483.4 1065.23 1489.58 1065.23ZM1570.51 1074C1567.56 1074 1566.09 1072.52 1566.09 1069.57V999.434C1566.09 996.54 1567.56 995.092 1570.51 995.092C1573.41 995.092 1574.85 996.54 1574.85 999.434V1007.45C1580.14 999.212 1589.72 995.092 1603.58 995.092H1608.25C1618.66 995.092 1626.26 997.514 1631.05 1002.36C1635.89 1007.14 1638.31 1014.74 1638.31 1025.15V1069.57C1638.31 1072.52 1636.87 1074 1633.97 1074C1631.02 1074 1629.55 1072.52 1629.55 1069.57V1025.15C1629.55 1017.19 1627.96 1011.65 1624.79 1008.54C1621.67 1005.42 1616.16 1003.86 1608.25 1003.86H1603.58C1594.95 1003.86 1588.16 1005.22 1583.2 1007.95C1578.25 1010.68 1575.47 1014.94 1574.85 1020.73V1069.57C1574.85 1072.52 1573.41 1074 1570.51 1074ZM1695.9 1074C1685.49 1074 1677.87 1071.58 1673.02 1066.74C1668.18 1061.89 1665.76 1054.27 1665.76 1043.86V1025.15C1665.76 1014.74 1668.18 1007.14 1673.02 1002.36C1677.87 997.514 1685.49 995.092 1695.9 995.092H1730.89V962.527C1730.89 959.633 1732.37 958.185 1735.32 958.185C1738.21 958.185 1739.66 959.633 1739.66 962.527V1069.57C1739.66 1072.52 1738.21 1074 1735.32 1074C1732.37 1074 1730.89 1072.52 1730.89 1069.57V1062.39C1728.5 1066.23 1724.99 1069.13 1720.37 1071.08C1715.75 1073.03 1709.71 1074 1702.25 1074H1695.9ZM1695.9 1065.23H1702.25C1710.93 1065.23 1717.86 1063.87 1723.04 1061.14C1728.27 1058.36 1730.89 1054.21 1730.89 1048.7V1003.86H1695.9C1687.94 1003.86 1682.38 1005.45 1679.2 1008.62C1676.09 1011.74 1674.53 1017.25 1674.53 1025.15V1043.86C1674.53 1051.82 1676.09 1057.38 1679.2 1060.56C1682.38 1063.67 1687.94 1065.23 1695.9 1065.23ZM1815.79 1074C1812.84 1074 1811.37 1072.52 1811.37 1069.57V970.794C1811.37 967.844 1812.84 966.368 1815.79 966.368H1856.04C1869.9 966.368 1879.98 969.541 1886.27 975.887C1892.61 982.233 1895.79 992.337 1895.79 1006.2V1034.17C1895.79 1048.03 1892.61 1058.13 1886.27 1064.48C1879.98 1070.83 1869.9 1074 1856.04 1074H1815.79ZM1820.13 1065.23H1856.04C1863.61 1065.23 1869.65 1064.23 1874.16 1062.23C1878.72 1060.22 1882.01 1056.97 1884.01 1052.46C1886.02 1047.89 1887.02 1041.8 1887.02 1034.17V1006.2C1887.02 998.627 1886.02 992.587 1884.01 988.078C1882.01 983.514 1878.72 980.229 1874.16 978.225C1869.65 976.166 1863.61 975.136 1856.04 975.136H1820.13V1065.23ZM1931.23 1037.93V1044.02C1931.23 1051.87 1932.78 1057.38 1935.9 1060.56C1939.07 1063.67 1944.64 1065.23 1952.6 1065.23H1966.3C1973.31 1065.23 1978.4 1064.34 1981.58 1062.56C1984.8 1060.72 1986.72 1057.58 1987.34 1053.12C1987.56 1051.73 1988.01 1050.68 1988.67 1049.95C1989.4 1049.23 1990.48 1048.87 1991.93 1048.87C1993.38 1048.87 1994.46 1049.28 1995.19 1050.12C1995.97 1050.9 1996.27 1052.01 1996.1 1053.46C1995.38 1060.47 1992.57 1065.65 1987.67 1068.99C1982.77 1072.33 1975.65 1074 1966.3 1074H1952.6C1942.19 1074 1934.57 1071.61 1929.72 1066.82C1924.88 1061.98 1922.46 1054.38 1922.46 1044.02V1025.15C1922.46 1014.63 1924.88 1006.98 1929.72 1002.19C1934.57 997.347 1942.19 994.981 1952.6 995.092H1966.3C1976.7 995.092 1984.3 997.514 1989.09 1002.36C1993.93 1007.14 1996.36 1014.74 1996.36 1025.15V1033.5C1996.36 1036.45 1994.91 1037.93 1992.01 1037.93H1931.23ZM1952.6 1003.86C1944.64 1003.75 1939.07 1005.28 1935.9 1008.45C1932.78 1011.57 1931.23 1017.14 1931.23 1025.15V1029.16H1987.59V1025.15C1987.59 1017.19 1986.03 1011.65 1982.91 1008.54C1979.79 1005.42 1974.26 1003.86 1966.3 1003.86H1952.6ZM2052.38 1070.66C2051.77 1072 2051.02 1072.89 2050.13 1073.33C2049.24 1073.78 2048.21 1074 2047.04 1074C2044.59 1074 2042.87 1072.86 2041.86 1070.58L2010.89 1001.19C2009.72 998.46 2010.52 996.568 2013.31 995.51C2015.92 994.397 2017.82 995.176 2018.98 997.848L2049.88 1066.99H2044.54L2077.43 997.764C2078.05 996.484 2078.85 995.649 2079.86 995.259C2080.86 994.87 2082 994.953 2083.28 995.51C2086.01 996.735 2086.76 998.683 2085.53 1001.35L2052.38 1070.66Z" fill="white"/>
<path id="CPE Lyon" d="M661.505 1298C652.102 1298 645.233 1295.83 640.9 1291.5C636.567 1287.17 634.4 1280.3 634.4 1270.89V1241.32C634.4 1231.83 636.545 1224.94 640.835 1220.65C645.168 1216.36 652.015 1214.21 661.375 1214.21H677.105C685.078 1214.21 691.015 1215.88 694.915 1219.22C698.815 1222.51 700.96 1227.82 701.35 1235.14C701.48 1236.31 701.242 1237.2 700.635 1237.81C700.072 1238.42 699.227 1238.72 698.1 1238.72C695.933 1238.72 694.742 1237.57 694.525 1235.27C694.222 1229.9 692.748 1226.2 690.105 1224.16C687.462 1222.08 683.128 1221.04 677.105 1221.04H661.375C656.392 1221.04 652.427 1221.69 649.48 1222.99C646.533 1224.25 644.41 1226.37 643.11 1229.36C641.853 1232.31 641.225 1236.29 641.225 1241.32V1270.89C641.225 1275.92 641.875 1279.91 643.175 1282.85C644.475 1285.8 646.598 1287.92 649.545 1289.22C652.492 1290.52 656.478 1291.17 661.505 1291.17H677.105C683.128 1291.17 687.462 1290.16 690.105 1288.12C692.748 1286.04 694.222 1282.31 694.525 1276.94C694.742 1274.64 695.933 1273.49 698.1 1273.49C699.227 1273.49 700.072 1273.82 700.635 1274.47C701.242 1275.08 701.48 1275.94 701.35 1277.07C700.96 1284.39 698.815 1289.72 694.915 1293.06C691.015 1296.35 685.078 1298 677.105 1298H661.505ZM726.055 1298C723.758 1298 722.61 1296.85 722.61 1294.55V1217.66C722.61 1215.36 723.758 1214.21 726.055 1214.21H756.475C763.885 1214.21 769.475 1216.12 773.245 1219.93C777.058 1223.75 778.965 1229.36 778.965 1236.77V1240.67C778.965 1248.04 777.058 1253.63 773.245 1257.44C769.475 1261.25 763.885 1263.16 756.475 1263.16H729.435V1294.55C729.435 1296.85 728.308 1298 726.055 1298ZM729.435 1256.33H756.475C761.935 1256.33 765.9 1255.1 768.37 1252.63C770.883 1250.12 772.14 1246.13 772.14 1240.67V1236.77C772.14 1231.27 770.883 1227.28 768.37 1224.81C765.9 1222.3 761.935 1221.04 756.475 1221.04H729.435V1256.33ZM798.926 1298C796.63 1298 795.481 1296.85 795.481 1294.55V1217.66C795.481 1215.36 796.63 1214.21 798.926 1214.21H847.611C849.908 1214.21 851.056 1215.36 851.056 1217.66C851.056 1219.91 849.908 1221.04 847.611 1221.04H802.306V1252.17H832.271C834.568 1252.17 835.716 1253.3 835.716 1255.55C835.716 1257.85 834.568 1259 832.271 1259H802.306V1291.17H847.611C849.908 1291.17 851.056 1292.3 851.056 1294.55C851.056 1296.85 849.908 1298 847.611 1298H798.926ZM904.424 1298C902.128 1298 900.979 1296.85 900.979 1294.55V1217.66C900.979 1215.36 902.128 1214.21 904.424 1214.21C906.678 1214.21 907.804 1215.36 907.804 1217.66V1291.17H947.324C949.621 1291.17 950.769 1292.3 950.769 1294.55C950.769 1296.85 949.621 1298 947.324 1298H904.424ZM978.91 1324C973.233 1324 969.03 1322.64 966.3 1319.91C963.613 1317.18 962.27 1312.93 962.27 1307.17C962.27 1304.91 963.397 1303.79 965.65 1303.79C967.947 1303.79 969.095 1304.91 969.095 1307.17C969.095 1311.07 969.788 1313.71 971.175 1315.1C972.562 1316.48 975.14 1317.18 978.91 1317.18H1001.4C1005.21 1317.18 1007.81 1316.48 1009.2 1315.1C1010.59 1313.71 1011.28 1311.07 1011.28 1307.17V1289.29C1008.81 1292.54 1005.71 1294.81 1001.99 1296.11C998.258 1297.41 993.903 1298.07 988.92 1298.07H985.28C977.307 1298.07 971.478 1296.22 967.795 1292.54C964.112 1288.86 962.27 1283.07 962.27 1275.18V1239.89C962.27 1237.59 963.397 1236.44 965.65 1236.44C967.947 1236.44 969.095 1237.59 969.095 1239.89V1275.18C969.095 1281.21 970.265 1285.39 972.605 1287.73C974.988 1290.07 979.213 1291.24 985.28 1291.24H988.92C996.503 1291.24 1002.12 1289.92 1005.76 1287.27C1009.44 1284.59 1011.28 1280.56 1011.28 1275.18V1239.89C1011.28 1237.59 1012.41 1236.44 1014.66 1236.44C1016.96 1236.44 1018.11 1237.59 1018.11 1239.89V1307.17C1018.11 1312.93 1016.74 1317.18 1014.01 1319.91C1011.32 1322.64 1007.12 1324 1001.4 1324H978.91ZM1064.12 1298C1056.01 1298 1050.08 1296.14 1046.31 1292.41C1042.54 1288.64 1040.65 1282.72 1040.65 1274.66V1259.97C1040.65 1251.78 1042.54 1245.83 1046.31 1242.1C1050.08 1238.33 1056.01 1236.49 1064.12 1236.57H1074.78C1082.88 1236.57 1088.79 1238.46 1092.52 1242.23C1096.29 1245.96 1098.18 1251.87 1098.18 1259.97V1274.53C1098.18 1282.64 1096.29 1288.57 1092.52 1292.34C1088.79 1296.11 1082.88 1298 1074.78 1298H1064.12ZM1047.48 1274.66C1047.48 1280.77 1048.69 1285.06 1051.12 1287.53C1053.59 1289.96 1057.92 1291.17 1064.12 1291.17H1074.78C1080.97 1291.17 1085.28 1289.96 1087.71 1287.53C1090.14 1285.06 1091.35 1280.73 1091.35 1274.53V1259.97C1091.35 1253.78 1090.14 1249.47 1087.71 1247.04C1085.28 1244.61 1080.97 1243.4 1074.78 1243.4H1064.12C1059.96 1243.36 1056.66 1243.85 1054.24 1244.89C1051.81 1245.93 1050.08 1247.67 1049.04 1250.09C1048 1252.52 1047.48 1255.81 1047.48 1259.97V1274.66ZM1124.18 1298C1121.88 1298 1120.74 1296.85 1120.74 1294.55V1239.95C1120.74 1237.7 1121.88 1236.57 1124.18 1236.57C1126.43 1236.57 1127.56 1237.7 1127.56 1239.95V1246.19C1131.68 1239.78 1139.13 1236.57 1149.92 1236.57H1153.56C1161.66 1236.57 1167.58 1238.46 1171.31 1242.23C1175.08 1245.96 1176.96 1251.87 1176.96 1259.97V1294.55C1176.96 1296.85 1175.83 1298 1173.58 1298C1171.28 1298 1170.14 1296.85 1170.14 1294.55V1259.97C1170.14 1253.78 1168.9 1249.47 1166.43 1247.04C1164 1244.61 1159.71 1243.4 1153.56 1243.4H1149.92C1143.2 1243.4 1137.92 1244.46 1134.06 1246.58C1130.2 1248.71 1128.04 1252.02 1127.56 1256.53V1294.55C1127.56 1296.85 1126.43 1298 1124.18 1298Z" fill="white"/>
<path id="Line 1" d="M201 836H1894" stroke="white" stroke-width="21" stroke-linecap="round"/>
<circle id="Ellipse 2" cx="3349" cy="2039" r="194" fill="#D9D9D9"/>
<circle id="Ellipse 3" cx="276" cy="1940" r="75" transform="rotate(90 276 1940)" fill="#D9D9D9" fill-opacity="0.8"/>
<circle id="Ellipse 4" cx="466" cy="1940" r="75" transform="rotate(90 466 1940)" fill="#D9D9D9" fill-opacity="0.8"/>
<circle id="Ellipse 5" cx="656" cy="1940" r="75" transform="rotate(90 656 1940)" fill="#D9D9D9" fill-opacity="0.8"/>
<circle id="Ellipse 6" cx="276" cy="1750" r="75" transform="rotate(90 276 1750)" fill="#D9D9D9" fill-opacity="0.8"/>
<circle id="Ellipse 7" cx="466" cy="1750" r="75" transform="rotate(90 466 1750)" fill="#D9D9D9" fill-opacity="0.8"/>
<circle id="Ellipse 8" cx="656" cy="1750" r="75" transform="rotate(90 656 1750)" fill="#D9D9D9" fill-opacity="0.8"/>
<path id="Vector" d="M357 1196.33L431.667 1161.54C447.524 1154.15 465.294 1154.15 481.151 1161.54L555.818 1196.33C572.061 1203.9 572.061 1230.1 555.818 1237.67L481.152 1272.46C465.295 1279.85 447.525 1279.85 431.668 1272.46L378.296 1247.59" stroke="#D9D9D9" stroke-width="16" stroke-linecap="round"/>
<path id="Vector_2" opacity="0.5" d="M351 1289V1256.7C351 1242.26 351 1235.04 354.775 1229.39C358.55 1223.73 365.269 1220.89 378.707 1215.2L391 1210" stroke="#D9D9D9" stroke-width="16" stroke-linecap="round" stroke-linejoin="round"/>
<path id="Vector_3" opacity="0.5" d="M534 1250V1306.65C534 1317.79 528.426 1328.22 518.663 1333.62C502.405 1342.61 476.384 1355 456.5 1355C436.616 1355 410.595 1342.61 394.338 1333.62C384.574 1328.22 379 1317.79 379 1306.65V1250" stroke="#D9D9D9" stroke-width="16" stroke-linecap="round"/>
</g>
</g>
<defs>
<clipPath id="clip0_905_318">
<rect width="3471" height="2149" rx="30" fill="white"/>
</clipPath>
</defs>
</svg>
